<?xml version="1.0" ?><!DOCTYPE svg  PUBLIC '-//W3C//DTD SVG 1.1//EN'  'http://www.w3.org/Graphics/SVG/1.1/DTD/svg11.dtd'><svg enable-background="new 0 0 512 512" height="512px" id="Layer_1" version="1.1" viewBox="0 0 512 512" width="512px" xml:space="preserve" xmlns="http://www.w3.org/2000/svg" xmlns:xlink="http://www.w3.org/1999/xlink"><g><path d="M510.689,478.854c0,17.561-14.275,31.836-31.836,31.836H33.146c-17.56,0-31.836-14.275-31.836-31.836   V33.146c0-17.56,14.276-31.836,31.836-31.836h445.707c17.561,0,31.836,14.276,31.836,31.836V478.854z" fill="#EEEEEE"/></g><g><path d="M313.436,177.018c9.281-6.595,18.668-13.068,27.812-19.861c24.953,24.209,50.18,48.149,75.141,72.357   c-26.359,38.306-52.436,76.8-78.701,115.165c-2.307,3.225-4.27,6.707-6.793,9.775c-1.988,0.691-4.227,0.225-6.301,0.355   c-68.002-0.035-136.003-0.018-204.005-0.035c-7.199-22.291-14.606-44.512-21.936-66.758c-0.898-2.887-1.763-5.799-3.042-8.547   c9.127-13.033,18.046-26.215,26.888-39.445c12.731,14.918,24.978,30.275,37.89,45.027c13.311-8.814,26.11-18.4,39.23-27.51   C237.561,230.707,275.494,203.862,313.436,177.018L313.436,177.018z" fill="#6FA842"/><path d="M348.785,187.112c6.889-0.709,14.113,2.108,18.514,7.511c4.727,5.479,6.273,13.466,3.906,20.302   c-2.922,8.902-12.16,15.367-21.59,14.442c-9.066-0.363-17.285-7.441-19.326-16.223c-0.623-3.405-0.604-6.958,0.121-10.337   C332.545,194.45,340.256,188.037,348.785,187.112L348.785,187.112z" fill="#FFFFFF"/><path d="M350.299,197.544c5.824-0.415,11.57,4.503,11.348,10.51c0.457,6.318-5.844,11.72-11.996,10.743   c-5.213-0.562-9.586-5.453-9.283-10.743C340.279,202.652,344.965,197.898,350.299,197.544L350.299,197.544z" fill="#030303"/></g></svg>